<?xml version="1.0" standalone="no"?>
<!DOCTYPE svg PUBLIC "-//W3C//DTD SVG 20010904//EN"
 "http://www.w3.org/TR/2001/REC-SVG-20010904/DTD/svg10.dtd">
<svg version="1.0" xmlns="http://www.w3.org/2000/svg"
 width="700.000000pt" height="700.000000pt" viewBox="0 0 700.000000 700.000000"
 preserveAspectRatio="xMidYMid meet">
<metadata>
Created by potrace 1.14, written by Peter Selinger 2001-2017
</metadata>
<g transform="translate(0.000000,700.000000) scale(0.100000,-0.100000)"
fill="#000000" stroke="none">
<path d="M3469 6339 c-58 -9 -62 -11 -206 -111 -344 -237 -677 -505 -1017
-818 -141 -130 -433 -433 -521 -541 -77 -94 -110 -135 -116 -139 -3 -3 -25
-32 -50 -65 -24 -33 -46 -62 -49 -65 -7 -7 -34 -46 -112 -161 -206 -303 -347
-620 -415 -930 -25 -115 -27 -142 -27 -364 -1 -212 5 -330 19 -415 2 -14 7
-45 10 -70 15 -114 68 -340 107 -455 204 -598 571 -1021 1108 -1279 252 -121
539 -202 850 -241 30 -4 64 -9 75 -11 115 -22 562 -21 750 1 17 2 57 6 90 10
33 3 67 8 75 10 8 3 33 7 55 10 70 11 78 12 190 39 829 199 1400 727 1641
1521 50 163 94 388 111 570 10 104 10 496 0 560 -48 307 -157 592 -345 905
-44 73 -161 250 -172 260 -3 3 -24 30 -45 60 -121 166 -331 405 -541 614 -108
108 -164 161 -299 285 -36 33 -235 205 -292 252 -99 82 -365 286 -483 370
-272 195 -304 212 -391 198z m100 -526 c202 -144 582 -444 711 -563 9 -8 61
-55 116 -105 656 -596 1089 -1217 1188 -1705 25 -127 28 -160 28 -301 -2 -409
-79 -766 -231 -1064 -93 -182 -189 -314 -326 -447 -70 -68 -265 -221 -273
-214 -2 2 1 21 7 42 36 137 48 379 26 539 -24 177 -73 382 -132 555 -86 252
-246 609 -297 663 -38 41 -108 69 -164 66 -51 -3 -128 -36 -152 -66 -8 -10
-35 -43 -59 -73 -123 -153 -296 -290 -367 -290 -26 0 -74 52 -105 112 -21 40
-67 157 -75 188 -16 65 -53 256 -59 305 -23 193 -31 528 -15 670 11 90 20 156
25 175 32 113 -15 224 -112 270 -86 41 -194 21 -253 -47 -44 -49 -396 -763
-522 -1058 -33 -77 -66 -153 -73 -170 -22 -51 -112 -295 -145 -395 -29 -88
-103 -362 -114 -420 -2 -14 -9 -45 -14 -70 -6 -25 -13 -63 -17 -85 -3 -22 -7
-51 -10 -65 -37 -226 -49 -515 -29 -684 7 -56 11 -102 10 -104 -8 -7 -139 103
-219 183 -262 263 -451 675 -502 1094 -4 30 -8 62 -10 71 -16 81 -23 393 -11
495 24 213 126 485 279 739 62 104 238 361 257 376 3 3 24 28 46 55 201 256
600 653 893 891 13 10 28 24 35 29 6 6 47 40 91 75 44 36 82 67 85 70 3 4 75
58 160 121 215 159 254 188 259 189 2 0 33 -21 70 -47z m-592 -2445 c0 -31 27
-171 49 -263 67 -269 174 -472 307 -577 50 -39 134 -86 166 -93 9 -2 37 -8 62
-14 158 -36 367 38 547 193 30 25 57 46 61 46 11 0 107 -263 146 -400 50 -175
69 -304 70 -460 0 -154 -4 -187 -38 -286 -70 -208 -237 -333 -514 -388 -121
-24 -176 -28 -348 -28 -564 1 -835 134 -912 449 -23 97 -22 437 2 563 2 12 7
48 11 79 3 31 8 59 10 62 2 4 6 24 9 45 4 22 22 104 41 184 56 231 142 476
295 842 23 56 35 71 36 46z"/>
</g>
</svg>
